<svg width="512" height="512" viewBox="0 0 512 512" fill="none" xmlns="http://www.w3.org/2000/svg">
<g clip-path="url(#clip0_202_2)">
<rect width="512" height="512" fill="#36393E"/>
<path d="M247.34 191C251.189 184.333 260.811 184.333 264.66 191L360.789 357.5C364.638 364.167 359.827 372.5 352.129 372.5H159.871C152.173 372.5 147.362 364.167 151.211 357.5L247.34 191Z" fill="#0EC5FF"/>
<path d="M83.4471 455.005C87.2961 448.338 96.9186 448.338 100.768 455.005L247.159 708.562C251.008 715.229 246.197 723.562 238.499 723.562H-54.284C-61.982 723.562 -66.7932 715.229 -62.9442 708.562L83.4471 455.005Z" fill="#0EC5FF"/>
<g filter="url(#filter0_di_202_2)">
<path d="M265.383 703.953C261.534 710.62 251.912 710.62 248.063 703.953L101.671 450.396C97.8223 443.729 102.634 435.396 110.332 435.396L403.114 435.396C410.812 435.396 415.623 443.729 411.774 450.396L265.383 703.953Z" fill="#0EC5FF"/>
</g>
<path d="M-55.1482 3.84727C-58.9972 -2.81939 -54.1859 -11.1527 -46.4879 -11.1527L246.295 -11.1527C253.993 -11.1527 258.804 -2.81937 254.955 3.8473L108.564 257.405C104.715 264.071 95.0921 264.071 91.2431 257.404L-55.1482 3.84727Z" fill="#0EC5FF"/>
<path d="M-114.931 91.0976C-116.329 85.7893 -113.186 80.3464 -107.89 78.9029L247.68 -18.0115C256.295 -20.3598 263.435 -11.0969 258.97 -3.36349L-2.74549 449.941C-7.21038 457.674 -18.8019 456.123 -21.076 447.488L-114.931 91.0976Z" fill="#0EC5FF"/>
<path d="M428.314 454.87C424.465 448.203 414.842 448.203 410.993 454.87L264.602 708.427C260.753 715.093 265.564 723.427 273.262 723.427H566.045C573.743 723.427 578.554 715.093 574.705 708.427L428.314 454.87Z" fill="#0EC5FF"/>
<path d="M247.123 708.927C251.126 714.047 258.874 714.047 262.877 708.927L464.065 451.661C469.199 445.096 464.521 435.5 456.188 435.5L53.8124 435.5C45.4787 435.5 40.8014 445.096 45.9351 451.661L247.123 708.927Z" fill="#0EC5FF"/>
<path d="M571.77 10.5285C575.409 3.93729 570.734 -4.15965 563.207 -4.30342L266.416 -9.97162C258.634 -10.1202 253.673 -1.71382 257.565 5.02655L410.869 270.557C414.761 277.297 424.521 277.204 428.283 270.391L571.77 10.5285Z" fill="#0EC5FF"/>
<path d="M637.833 111.578C639.459 106.087 636.149 100.354 630.581 99.0165L283.3 15.5749C274.759 13.5227 267.912 22.6908 272.304 30.2982L518.206 456.214C522.599 463.821 533.962 462.475 536.455 454.052L637.833 111.578Z" fill="#0EC5FF"/>
</g>
<defs>
<filter id="filter0_di_202_2" x="96.3167" y="435.396" width="320.812" height="281.557" filterUnits="userSpaceOnUse" color-interpolation-filters="sRGB">
<feFlood flood-opacity="0" result="BackgroundImageFix"/>
<feColorMatrix in="SourceAlpha" type="matrix" values="0 0 0 0 0 0 0 0 0 0 0 0 0 0 0 0 0 0 127 0" result="hardAlpha"/>
<feOffset dy="4"/>
<feGaussianBlur stdDeviation="2"/>
<feComposite in2="hardAlpha" operator="out"/>
<feColorMatrix type="matrix" values="0 0 0 0 0 0 0 0 0 0 0 0 0 0 0 0 0 0 0.25 0"/>
<feBlend mode="normal" in2="BackgroundImageFix" result="effect1_dropShadow_202_2"/>
<feBlend mode="normal" in="SourceGraphic" in2="effect1_dropShadow_202_2" result="shape"/>
<feColorMatrix in="SourceAlpha" type="matrix" values="0 0 0 0 0 0 0 0 0 0 0 0 0 0 0 0 0 0 127 0" result="hardAlpha"/>
<feOffset dy="4"/>
<feGaussianBlur stdDeviation="2"/>
<feComposite in2="hardAlpha" operator="arithmetic" k2="-1" k3="1"/>
<feColorMatrix type="matrix" values="0 0 0 0 0 0 0 0 0 0 0 0 0 0 0 0 0 0 0.25 0"/>
<feBlend mode="normal" in2="shape" result="effect2_innerShadow_202_2"/>
</filter>
<clipPath id="clip0_202_2">
<rect width="512" height="512" fill="white"/>
</clipPath>
</defs>
</svg>
